<?xml version="1.0" encoding="utf-8"?>
<!-- Generator: Adobe Illustrator 21.0.0, SVG Export Plug-In . SVG Version: 6.00 Build 0)  -->
<svg version="1.1" id="Layer_1" xmlns="http://www.w3.org/2000/svg" xmlns:xlink="http://www.w3.org/1999/xlink" x="0px" y="0px"
	 viewBox="0 0 256 256" style="enable-background:new 0 0 256 256;" xml:space="preserve">
<style type="text/css">
	.st0{fill:#CFFFBA;}
	.st1{fill:#472807;}
	.st2{fill:none;stroke:#472807;stroke-width:4;stroke-miterlimit:10;}
</style>
<title>placeholder</title>
<path class="st0" d="M128,253C59,253,3,197,3,128S59,3,128,3s125,56,125,125C252.9,197,197,252.9,128,253z"/>
<path class="st1" d="M128,5c67.9,0,123,55,123.1,122.9c0,32.7-13,64-36.1,87.1c-48,48-126,48-174,0S-7,89,41,41
	C64,17.9,95.4,4.9,128,5 M128,1C57.9,1,1,57.9,1,128s56.9,127,127,127s127-56.9,127-127S198.1,1,128,1L128,1z"/>
<line class="st2" x1="40" y1="41" x2="217.3" y2="218.3"/>
<line class="st2" x1="215.3" y1="40.7" x2="40.5" y2="215.5"/>
</svg>
