<?xml version="1.0" encoding="utf-8"?>
<!-- Generator: Adobe Illustrator 21.0.0, SVG Export Plug-In . SVG Version: 6.00 Build 0)  -->
<svg version="1.1" id="Layer_1" xmlns="http://www.w3.org/2000/svg" xmlns:xlink="http://www.w3.org/1999/xlink" x="0px" y="0px"
	 viewBox="0 0 100 100" style="enable-background:new 0 0 100 100;" xml:space="preserve">
<style type="text/css">
	.st0{fill:#8E7565;stroke:#FFFFFF;stroke-width:0.5;stroke-miterlimit:10;}
</style>
<g>
	<path class="st0" d="M50.6,73.8v12.4c0,0.6-0.4,1-1,1s-1-0.4-1-1V73.8c0-0.6,0.4-1,1-1S50.6,73.3,50.6,73.8z M61.1,72.2
		c-0.6-0.1-1,0.3-1.1,0.9l-1.6,12.4c-0.1,0.5,0.3,1,0.9,1.1h0.1c0.5,0,0.9-0.4,1-0.9L62,73.3C62,72.7,61.7,72.2,61.1,72.2z M38,72.2
		c-0.5,0.1-0.9,0.6-0.9,1.1l1.6,12.4c0.1,0.5,0.5,0.9,1,0.9h0.1c0.5-0.1,0.9-0.6,0.9-1.1L39.1,73C39.1,72.5,38.6,72.1,38,72.2z
		 M74.8,65.7l-5.5,22.2c0,0.4-0.2,0.7-0.5,1c-0.2,0.1-5.5,3.5-19.2,3.5s-19-3.4-19.2-3.5c-0.2-0.2-0.4-0.4-0.5-0.7l-5.6-22.4
		c-4-3.7-5.6-9-5.4-12.7c0.2-3.8,2.9-8.8,7.6-11.7c-0.7-1.8-1-4-1-4c-0.2-1.8-0.1-3.8,0.4-5.6c0.7-2.6,2.2-5.1,4.1-6.7
		c-1.8-3.3-1.2-7.5,1.6-10.2c0.2-0.2,0.5-0.4,0.7-0.6C31,11.4,27.7,10,27.7,10c-0.6-0.3-0.9-1-0.7-1.6c0.3-0.6,1-0.9,1.6-0.7
		c0.2,0.1,4,1.7,5.8,5.4c3.1-1.2,6.7-0.5,9.1,2.1c0.8,0.9,1.4,1.9,1.8,3c1.1-0.7,2.1-1.6,2.9-2.7c0.7-1,1.1-2.6,1-3.8
		c0-0.4,0.1-0.8,0.5-1.1c0.3-0.2,0.8-0.3,1.2-0.1c3.1,1.4,7.6,3.6,10.9,7c2.9,3,4.2,7.8,3.4,12.5c6.3,2.8,13.5,8.2,15.2,14.1
		C82.1,49.8,80.3,59.8,74.8,65.7z M62.6,23.9c-0.4,0.6-1,1.2-1.8,1.6c-0.9,0.4-1.9,0.4-2.8,0.4c-0.8,0-1.5,0-2.1,0.3
		c-0.8,0.4-1.6,0.9-2,1.5c-0.4,0.4-0.6,0.9-0.9,1.5c-0.5,0.9-1,1.8-1.8,2.5c-1.5,1.3-3.6,1.4-5.6,0.4c-1.6-0.8-2.9-0.9-4.1,0
		c-0.9,0.7-1.6,1.6-2.5,2.8c-1.2,1.7-3.2,3.4-5.5,3.4c-0.7,0-1.3-0.2-2-0.5c-0.8-0.4-1.4-0.9-2-1.4s-1.1-0.9-1.7-1.1
		c0,0.5,0,1.1,0.1,1.6c0.1,0.8,0.5,2.8,1.1,3.8c7.9-0.2,21.9-2,33.7-10.6C63.1,28.3,63.1,26.1,62.6,23.9z M32,23.6
		c2.1-1.3,4.5-2,6.7-2.7c1.6-0.5,3.1-1,4.5-1.6c-0.3-0.9-0.7-1.8-1.4-2.5c-2.3-2.4-6.1-2.5-8.6-0.2C31.3,18.4,30.8,21.3,32,23.6z
		 M26.2,64.2C26.3,64.3,26.3,64.3,26.2,64.2c0.1,0.1,0.1,0.2,0.2,0.2c0.1,0.1,1.7,2.2,4.9,3c0.6,0.2,1.2,0.2,1.7,0.2
		c2.2,0,3.6-1.1,3.7-1.2l0,0l0,0c0.3-0.2,0.6-0.3,1-0.3c0.3,0,0.6,0.2,0.8,0.4c0.1,0.1,0.5,0.6,1.3,1.1l0,0c0.2,0.1,0.4,0.3,0.7,0.4
		c0.1,0,0.1,0.1,0.2,0.1c0.2,0.1,0.4,0.2,0.7,0.3c0.1,0,0.3,0.1,0.5,0.1c0.2,0.1,0.4,0.1,0.6,0.2c0.3,0.1,0.6,0.1,0.9,0.1
		c0.1,0,0.2,0,0.2,0c0.1,0,0.2,0,0.3,0c3.2,0.1,4.9-1.6,5-1.6c0.1-0.1,0.3-0.2,0.4-0.3l0,0c0.1,0,0.3-0.1,0.4-0.1
		c0.1,0,0.3,0,0.4,0.1l0,0c0.1,0.1,0.3,0.1,0.4,0.3c0.1,0.1,1.8,1.7,5,1.6c0.1,0,0.2,0,0.3,0s0.2,0,0.2,0c0.3,0,0.6-0.1,0.9-0.1
		c0.2,0,0.4-0.1,0.6-0.2c0.1,0,0.3-0.1,0.5-0.1c0.2-0.1,0.4-0.2,0.7-0.3c0.1,0,0.1-0.1,0.2-0.1c0.3-0.1,0.5-0.2,0.7-0.4l0,0
		c0.8-0.5,1.3-1,1.3-1.1c0.2-0.2,0.5-0.4,0.8-0.4c0.4-0.1,0.7,0.1,1,0.3l0,0c0.1,0.1,1.4,1.2,3.7,1.2c0.5,0,1.1-0.1,1.7-0.2
		c3.1-0.8,4.8-2.8,4.9-3c0,0,0,0,0.1-0.1c0,0,0,0,0-0.1c4.4-4.6,6.3-12.4,5.6-17.7C78,46.9,77.4,47.4,77,48c-2.2,3-3.4,7-6.5,9.3
		c-2.9,2.2-7.3,2.6-10.5,1c-2.5-1.1-4.7-2.6-7.5-2.7c-1.9,0-3.6,0.5-5.1,1.7c-2.8,2-5.5,4.7-9.2,3.4c-2-0.7-2.9-1.8-4.7-2.8
		c-1.9-1.1-4.1-1.1-6,0s-3.6,1.1-4.7,0.9C23.3,60.9,24.5,62.7,26.2,64.2z M71.7,68.4c-0.9,0.5-1.9,1-3.2,1.3c-0.3,0.1-0.7,0.1-1,0.2
		c0,0,0,0-0.1,0s-0.1,0-0.2,0c-1,0.1-1.9,0.1-2.7-0.1h-0.1c-0.2,0-0.5-0.1-0.7-0.2h-0.1c-0.2-0.1-0.4-0.1-0.6-0.2c0,0,0,0-0.1,0
		c-0.4-0.2-0.8-0.3-1.1-0.5c-1.1,1-3.2,2.2-6,2.4c-0.2,0-0.4,0-0.7,0c-0.1,0-0.2,0-0.2,0c-0.1,0-0.2,0-0.3,0c-0.3,0-0.5,0-0.7-0.1
		h-0.1c-2-0.3-3.4-1-4.2-1.6c-0.8,0.6-2.3,1.3-4.2,1.6h-0.1c-0.2,0-0.5,0-0.7,0.1c-0.1,0-0.2,0-0.3,0s-0.2,0-0.2,0
		c-0.2,0-0.4,0-0.7,0c-2.8-0.2-4.9-1.4-6-2.4c-0.3,0.2-0.7,0.4-1.1,0.5c0,0,0,0-0.1,0c-0.2,0.1-0.4,0.1-0.6,0.2h-0.1
		c-0.2,0.1-0.5,0.1-0.7,0.2h-0.1C33.9,69.9,33,70,32,69.9c-0.1,0-0.1,0-0.1,0s0,0-0.1,0c-0.3,0-0.7-0.1-1-0.2
		c-1.3-0.3-2.3-0.8-3.2-1.3l4.6,18.7c1.4,0.7,6.6,2.9,17.5,2.9c10.8,0,16-2.2,17.4-2.9L71.7,68.4z"/>
</g>
</svg>
